<svg xmlns="http://www.w3.org/2000/svg" height="28" width="111" viewBox="0 0 110 28"><defs><style>.cls-1{fill:#8c8c8c;}.cls-2{fill:#093;}</style></defs><path class="cls-1" d="M61.37,9.07V6.49H45.84V9.07H44V4.92h8.55V3.34h2V4.92h8.64V9.05Zm-1.2,15V22.86H47.06V24H45.2V15.22H62V24ZM46.63,14.11v-4h14v4ZM47,8.94V7.52H60.23v1.4Zm5.69,7.68H47.06v1.71h5.63Zm0,3H47.06v1.79h5.63Zm6.06-8.25H48.46v1.49H58.75Zm1.42,5.27H54.5v1.71h5.67Zm0,3H54.5v1.79h5.67Z"/><path class="cls-1" d="M83.78,24V22.11H69.41V24h-2V6.6h2V20.19h6.17V3.34h2V20.19h6.21V6.6h2V24Z"/><path class="cls-1" d="M89.26,21.74a17.61,17.61,0,0,0,5.58-3.24l1.57,1.14a18.46,18.46,0,0,1-5.77,3.72Zm11.33-3.63V24H98.67V18.11h-7.9v-13h1.9V16.38h16.76v1.73Zm-6-3.11V4.06h12.89V15Zm11-9.3H96.39V7.28h9.19Zm0,3H96.39v1.62h9.19Zm0,3H96.39v1.68h9.19Zm3.06,11.75a25.84,25.84,0,0,1-5.88-3.81l1.51-1.2A21.72,21.72,0,0,0,110,21.76Z"/><path class="cls-2" d="M4.93,1.1S7.39,1,8,1s.49.49.49.79-.69.88-.69.88L7.19,3.86a1.67,1.67,0,0,0-.49,1,1.46,1.46,0,0,0,.69,1.38A19.19,19.19,0,0,1,8.87,7.6c.39.39.49.3,1.08.49a4,4,0,0,1,1.28.59c.4.3.79.1,1.78.2s2.26.1,3,.2a3,3,0,0,0,2-.59c.4-.3,1.09-.69,1.28-.89A4.2,4.2,0,0,0,20,6.42a8.37,8.37,0,0,0,.4-2.27c0-.59-.6-.79.09-1.18s2.57-1.31,3.26-1.81.49-.59,1.08-.59A9.17,9.17,0,0,0,26.6,0c.5-.1,1.28.4,1.48.5s-.1.69.4,1.08a1.44,1.44,0,0,0,1.18.3c.39,0,.1,2.16.29,2.75s-.19,1.78.2,2.17.17.4.56.59a1.42,1.42,0,0,1,.62,1.09c0,.29-.59,0-.59,1s-.39,1.25-.1,1.64.79.53.89,1.32a7,7,0,0,1-.1,2.56c-.2.49-.52.52-1.11,1.12s-.66,1.28-1.15,1.77a3.94,3.94,0,0,0-.89,2.3c.1.39-.4.82-.69,1.31s-.4,1.19-.89,1.58-.92.89-1.61.69-.88-.62-1.38-.82A3.19,3.19,0,0,0,22,23c-.59.1-.95-.62-1.35-.72s-.33,0-.72-.1a8,8,0,0,1-1.45-.88l-.69.39s-.85-1.15-1.34-1.15a10.52,10.52,0,0,0-2,.56s-.09,1.48-.69,1a3,3,0,0,0-1.34-.59s-1.09,1.25-1.28,1.45a10.89,10.89,0,0,0-1.28,1.51c-.3.49-1.12,1.28-1.12,1.87s-.69.59-1.08.89-.6.69-.79.79-1.28-1.58-1.28-1.88-.79,0-1.28-.19-.6-.79-.89-.69-1.77.79-1.77,1-.6.69-.89.69S0,26.22,0,25.83V23.36A9.4,9.4,0,0,1,.39,21.1c.2-.49,0-1,.3-1.48a15.2,15.2,0,0,0,.72-1.48A11.21,11.21,0,0,1,.59,17a12.65,12.65,0,0,1,.1-2.66A1.71,1.71,0,0,1,1.48,13s.1.2.1-.49S.79,11,.79,10.75s.69-.69.89-1.38.09-1.57.39-2a2.81,2.81,0,0,0,.39-1.48c0-.39.3-.39.59-.68a2.34,2.34,0,0,0,.3-1.48c0-.5,0-1.19.49-1.48A4.93,4.93,0,0,0,4.93,1.1Z"/></svg>